<svg width="26" height="25" viewBox="0 0 26 25" fill="none" xmlns="http://www.w3.org/2000/svg">
<g clip-path="url(#clip0_5401_7244)">
<path d="M25.1749 12.167C25.1749 5.44663 19.54 0 12.5874 0C5.63485 0 0 5.44663 0 12.167C0 18.8874 5.63485 24.334 12.5874 24.334C12.6612 24.334 12.735 24.334 12.8087 24.3292V14.8618H10.1044V11.8153H12.8087V9.572C12.8087 6.97226 14.451 5.55594 16.8505 5.55594C18.001 5.55594 18.9893 5.63674 19.2745 5.67476V8.39332H17.6224C16.3194 8.39332 16.0637 8.99217 16.0637 9.87142V11.8105H19.186L18.7779 14.857H16.0637V23.8635C21.3249 22.4044 25.1749 17.7229 25.1749 12.167Z" fill="white"/>
</g>
<defs>
<clipPath id="clip0_5401_7244">
<rect width="25.1749" height="24.334" fill="white"/>
</clipPath>
</defs>
</svg>
