<svg width="26" height="25" viewBox="0 0 26 25" fill="none" xmlns="http://www.w3.org/2000/svg">
<g clip-path="url(#clip0_5401_7251)">
<path d="M12.7827 0C19.7341 0 25.3702 5.44777 25.3702 12.167C25.3702 18.8863 19.7342 24.334 12.7828 24.334C5.83143 24.334 0.195312 18.8862 0.195312 12.167C0.195312 5.44785 5.83056 0 12.7827 0Z" fill="white"/>
<path d="M17.1254 5.32031H8.43622C6.92651 5.32031 5.69922 6.50736 5.69922 7.96589V16.3657C5.69922 17.825 6.92729 19.0113 8.43622 19.0113H17.1263C18.636 19.0113 19.8633 17.8242 19.8633 16.3657V7.96589C19.8632 6.50736 18.6351 5.32031 17.1254 5.32031ZM17.9877 6.85109L18.2977 6.85034V9.12253L15.9297 9.13013L15.9218 6.85794L17.9877 6.85109ZM12.7813 9.87531C14.7457 9.87531 15.1508 11.6578 15.1508 12.1665C15.1508 13.428 14.0872 14.4561 12.7813 14.4561C11.4745 14.4561 10.4117 13.428 10.4117 12.1665C10.4108 11.6578 10.8168 9.87531 12.7813 9.87531ZM18.3111 16.1999C18.3111 16.9231 17.703 17.5117 16.9532 17.5117H8.58252C7.83354 17.5117 7.22465 16.9239 7.22465 16.1999V10.6419H9.19141C9.0089 11.0761 8.90581 11.6692 8.90581 12.1665C8.90581 14.2304 10.6429 15.9102 12.7788 15.9102C14.9148 15.9102 16.651 14.2304 16.651 12.1665C16.651 11.6692 16.5479 11.0761 16.3662 10.6419H18.3094V16.1999H18.3111Z" fill="#03256C"/>
</g>
<defs>
<clipPath id="clip0_5401_7251">
<rect width="25.1749" height="24.334" fill="white" transform="translate(0.195312)"/>
</clipPath>
</defs>
</svg>
