<svg width="26" height="25" viewBox="0 0 26 25" fill="none" xmlns="http://www.w3.org/2000/svg">
<g clip-path="url(#clip0_5401_7233)">
<path d="M12.7359 24.334C19.6877 24.334 25.3233 18.8866 25.3233 12.167C25.3233 5.44735 19.6877 0 12.7359 0C5.78403 0 0.148438 5.44735 0.148438 12.167C0.148438 18.8866 5.78403 24.334 12.7359 24.334Z" fill="white"/>
<path d="M19.8793 11.821C19.9123 11.6525 19.9287 11.5109 19.9362 11.3997C19.9487 11.2162 19.9345 10.9439 19.9294 10.8586C19.7546 7.9196 16.6 5.57812 12.7342 5.57812C8.7561 5.57812 5.53125 8.05748 5.53125 11.116C5.53125 13.9272 8.25565 16.249 11.7853 16.6061C12.0011 16.6279 12.1566 16.8162 12.1327 17.0246L11.9825 18.3321C11.9484 18.6288 12.2658 18.8448 12.5441 18.715C15.5262 17.3238 17.3094 15.8927 18.3742 14.6529C18.568 14.4272 19.1998 13.5716 19.3286 13.3469C19.6021 12.8697 19.7906 12.3573 19.8793 11.821Z" fill="#03256C"/>
<path d="M8.77211 12.2357V9.90304C8.77211 9.70633 8.60715 9.54688 8.40363 9.54688C8.20012 9.54688 8.03516 9.70633 8.03516 9.90304V12.5918C8.03516 12.7885 8.20012 12.948 8.40363 12.948H9.87745C10.081 12.948 10.2459 12.7885 10.2459 12.5918C10.2459 12.3951 10.081 12.2356 9.87745 12.2356H8.77211V12.2357Z" fill="white"/>
<path d="M11.0466 12.948H10.8856C10.7266 12.948 10.5977 12.8234 10.5977 12.6697V9.8252C10.5977 9.67149 10.7266 9.54688 10.8856 9.54688H11.0466C11.2056 9.54688 11.3346 9.67149 11.3346 9.8252V12.6697C11.3346 12.8235 11.2056 12.948 11.0466 12.948Z" fill="white"/>
<path d="M14.0236 9.90302V11.5456C14.0236 11.5456 12.5522 9.69048 12.5297 9.66609C12.4594 9.58981 12.3558 9.54295 12.2408 9.54713C12.0405 9.5545 11.8867 9.72379 11.8867 9.91766V12.5918C11.8867 12.7885 12.0517 12.9479 12.2552 12.9479C12.4587 12.9479 12.6237 12.7885 12.6237 12.5918V10.9592C12.6237 10.9592 14.1174 12.8304 14.1394 12.8506C14.2046 12.9102 14.2921 12.9471 14.3887 12.9479C14.5934 12.9497 14.7606 12.7748 14.7606 12.577V9.90306C14.7606 9.70635 14.5956 9.5469 14.3921 9.5469C14.1886 9.54685 14.0236 9.7063 14.0236 9.90302Z" fill="white"/>
<path d="M17.5233 9.90304C17.5233 9.70633 17.3583 9.54688 17.1548 9.54688H15.681C15.4775 9.54688 15.3125 9.70633 15.3125 9.90304V12.5918C15.3125 12.7885 15.4775 12.948 15.681 12.948H17.1548C17.3583 12.948 17.5233 12.7885 17.5233 12.5918C17.5233 12.3951 17.3583 12.2356 17.1548 12.2356H16.0495V11.6035H17.1548C17.3583 11.6035 17.5233 11.4441 17.5233 11.2474C17.5233 11.0506 17.3583 10.8912 17.1548 10.8912H16.0495V10.2591H17.1548C17.3583 10.2591 17.5233 10.0997 17.5233 9.90304Z" fill="white"/>
</g>
<defs>
<clipPath id="clip0_5401_7233">
<rect width="25.1749" height="24.334" fill="white" transform="translate(0.148438)"/>
</clipPath>
</defs>
</svg>
