<svg width="30" height="30" viewBox="0 0 30 30" fill="none" xmlns="http://www.w3.org/2000/svg">
<g clip-path="url(#clip0_5450_37509)">
<path d="M28.8926 27.8881L20.5747 19.5702C22.1859 17.58 23.156 15.0511 23.156 12.2968C23.156 5.91303 17.9617 0.71875 11.578 0.71875C5.19422 0.71875 0 5.91297 0 12.2967C0 18.6805 5.19428 23.8748 11.578 23.8748C14.3324 23.8748 16.8613 22.9047 18.8514 21.2935L27.1693 29.6114C27.407 29.849 27.719 29.9685 28.031 29.9685C28.343 29.9685 28.655 29.849 28.8927 29.6114C29.3692 29.1348 29.3692 28.3646 28.8926 27.8881ZM11.578 21.4373C6.53731 21.4373 2.4375 17.3374 2.4375 12.2967C2.4375 7.256 6.53731 3.15619 11.578 3.15619C16.6188 3.15619 20.7186 7.256 20.7186 12.2967C20.7186 17.3374 16.6187 21.4373 11.578 21.4373Z" fill="#03256C"/>
</g>
<defs>
<clipPath id="clip0_5450_37509">
<rect width="29.25" height="29.25" fill="white" transform="translate(0 0.71875)"/>
</clipPath>
</defs>
</svg>
