<svg width="8" height="12" viewBox="0 0 8 12" fill="none" xmlns="http://www.w3.org/2000/svg">
<path d="M2.16587 0.520081C2.58387 0.928081 6.66787 5.21508 6.66787 5.21508C6.77373 5.31722 6.85792 5.43963 6.91542 5.57502C6.97292 5.7104 7.00256 5.85599 7.00256 6.00308C7.00256 6.15017 6.97292 6.29576 6.91542 6.43115C6.85792 6.56653 6.77373 6.68895 6.66787 6.79108C6.66787 6.79108 2.58387 11.0801 2.16587 11.4861C1.74787 11.8941 0.995874 11.9221 0.550874 11.4861C0.104874 11.0521 0.0698738 10.4451 0.550874 9.91208L4.29787 6.00408L0.550874 2.09608C0.0698738 1.56308 0.104874 0.955081 0.550874 0.520081C0.995874 0.0840808 1.74787 0.111081 2.16587 0.520081Z" fill="#2541B2"/>
</svg>
