<svg width="20" height="20" viewBox="0 0 20 20" fill="none" xmlns="http://www.w3.org/2000/svg">
<path d="M4.05291 12.8992C6.03304 15.1872 8.41667 16.9886 11.1373 18.2632C12.1731 18.7377 13.5583 19.3006 15.1017 19.3971C15.1974 19.4011 15.2889 19.4052 15.3846 19.4052C16.4204 19.4052 17.2524 19.0594 17.9304 18.3477C17.9346 18.3436 17.9429 18.3356 17.9471 18.3275C18.1883 18.0461 18.4629 17.7928 18.7499 17.5234C18.9455 17.3424 19.1451 17.1534 19.3365 16.9604C20.2226 16.0678 20.2226 14.9339 19.3282 14.0693L16.828 11.6528C16.4037 11.2265 15.8962 11.0014 15.3638 11.0014C14.8313 11.0014 14.3196 11.2265 13.8828 11.6487L12.3936 13.0882C12.2563 13.0118 12.1149 12.9435 11.9817 12.8791C11.8153 12.7987 11.6614 12.7223 11.5241 12.6379C10.168 11.8055 8.93667 10.7199 7.75941 9.32461C7.16454 8.59682 6.76518 7.98563 6.48647 7.36238C6.8775 7.0206 7.24358 6.66274 7.59717 6.31291C7.72197 6.18826 7.85092 6.06361 7.97988 5.93896C8.42915 5.5047 8.67043 5.00208 8.67043 4.49142C8.67043 3.98075 8.43331 3.47813 7.97988 3.04387L6.74022 1.84562C6.59463 1.70489 6.45735 1.56818 6.31591 1.42744C6.04136 1.15402 5.75432 0.872549 5.47145 0.619228C5.04297 0.213111 4.53962 0 4.00715 0C3.47884 0 2.97133 0.213111 2.52622 0.623249L0.970403 2.12709C0.404653 2.67394 0.084338 3.3374 0.0177792 4.1054C-0.0612595 5.06641 0.121777 6.08774 0.596009 7.32217C1.324 9.23213 2.42222 11.0054 4.05291 12.8992ZM1.0328 4.18984C1.08272 3.65506 1.29488 3.20873 1.69423 2.82272L3.24172 1.32692C3.483 1.10174 3.74924 0.985136 4.00715 0.985136C4.26091 0.985136 4.51882 1.10174 4.75594 1.33496C5.03465 1.58426 5.29673 1.84562 5.5796 2.12307C5.72104 2.2638 5.86664 2.40454 6.01224 2.54929L7.25189 3.74754C7.50981 3.99684 7.64293 4.25016 7.64293 4.49946C7.64293 4.74876 7.50981 5.00208 7.25189 5.25138C7.12294 5.37603 6.99398 5.5047 6.86502 5.62935C6.47815 6.00732 6.11623 6.36518 5.71688 6.70697C5.70856 6.71501 5.7044 6.71903 5.69608 6.72707C5.35081 7.06081 5.40489 7.37847 5.48809 7.61972C5.49225 7.63179 5.49641 7.63983 5.50057 7.65189C5.82088 8.39577 6.26599 9.10346 6.9607 9.94786C8.20868 11.4356 9.52322 12.5896 10.9709 13.4783C11.1497 13.5909 11.3411 13.6793 11.52 13.7678C11.6864 13.8482 11.8403 13.9246 11.9776 14.009C11.9942 14.0171 12.0067 14.0251 12.0233 14.0332C12.1606 14.1015 12.2937 14.1337 12.4268 14.1337C12.7596 14.1337 12.976 13.9286 13.0467 13.8603L14.6025 12.3564C14.8438 12.1232 15.1058 11.9986 15.3638 11.9986C15.6799 11.9986 15.9378 12.1875 16.1001 12.3564L18.6085 14.777C19.1077 15.2596 19.1035 15.7823 18.596 16.2929C18.4213 16.4739 18.2383 16.6468 18.0427 16.8277C17.7516 17.1012 17.4479 17.3826 17.1733 17.7003C16.6949 18.1989 16.125 18.4321 15.3887 18.4321C15.318 18.4321 15.2431 18.4281 15.1724 18.4241C13.8079 18.3396 12.5392 17.8249 11.5865 17.3866C8.99906 16.1763 6.72774 14.4594 4.8433 12.28C3.29164 10.4746 2.2475 8.79385 1.55695 6.99245C1.12848 5.88669 0.966243 4.99806 1.0328 4.18984Z" fill="white"/>
</svg>
