<svg width="26" height="25" viewBox="0 0 26 25" fill="none" xmlns="http://www.w3.org/2000/svg">
<g clip-path="url(#clip0_5401_7246)">
<path d="M12.6851 24.3338C19.6369 24.3338 25.2725 18.8865 25.2725 12.1669C25.2725 5.4473 19.6369 0 12.6851 0C5.73324 0 0.0976562 5.4473 0.0976562 12.1669C0.0976562 18.8865 5.73324 24.3338 12.6851 24.3338Z" fill="white"/>
<path d="M20.3957 8.74659C19.8563 8.97779 19.276 9.13417 18.6675 9.20401C19.2888 8.84419 19.7656 8.27487 19.9907 7.59536C19.4093 7.92872 18.7651 8.17054 18.08 8.30089C17.5312 7.7359 16.7492 7.38281 15.8833 7.38281C14.222 7.38281 12.8746 8.68521 12.8746 10.291C12.8746 10.519 12.9013 10.7409 12.9529 10.9538C10.4524 10.8326 8.23525 9.67487 6.75119 7.91483C6.49225 8.34427 6.34371 8.84419 6.34371 9.37708C6.34371 10.3858 6.87527 11.2764 7.68215 11.7977C7.18918 11.7828 6.72493 11.652 6.31947 11.4336C6.31925 11.446 6.31925 11.4583 6.31925 11.4705C6.31925 12.8796 7.3568 14.0549 8.73293 14.3219C8.48073 14.3887 8.21439 14.424 7.94041 14.424C7.7461 14.424 7.55784 14.406 7.3743 14.3722C7.75709 15.5273 8.86801 16.3682 10.1849 16.3918C9.155 17.172 7.85784 17.6368 6.44782 17.6368C6.20549 17.6368 5.9654 17.6231 5.73047 17.596C7.06128 18.4215 8.64318 18.9027 10.3422 18.9027C15.8764 18.9027 18.9029 14.4713 18.9029 10.6279C18.9029 10.5019 18.8999 10.3763 18.8941 10.2518C19.4824 9.84187 19.9925 9.3298 20.3957 8.74659Z" fill="#03256C"/>
</g>
<defs>
<clipPath id="clip0_5401_7246">
<rect width="25.1751" height="24.334" fill="white" transform="translate(0.0976562)"/>
</clipPath>
</defs>
</svg>
