<svg width="26" height="25" viewBox="0 0 26 25" fill="none" xmlns="http://www.w3.org/2000/svg">
<g clip-path="url(#clip0_5401_7241)">
<path d="M12.6383 24.334C19.5901 24.334 25.2257 18.8867 25.2257 12.167C25.2257 5.44736 19.5901 0 12.6383 0C5.68639 0 0.0507812 5.44736 0.0507812 12.167C0.0507812 18.8867 5.68639 24.334 12.6383 24.334Z" fill="white"/>
<path d="M19.2265 9.81542C19.2265 8.79546 18.3716 7.96875 17.317 7.96875H8.35833C7.30391 7.96875 6.44922 8.79566 6.44922 9.81542V14.7673C6.44922 15.7873 7.30407 16.614 8.35833 16.614H17.3168C18.3717 16.614 19.2263 15.7871 19.2263 14.7673V9.81542H19.2265ZM11.5597 14.3804V9.72937L15.2088 12.055L11.5597 14.3804Z" fill="#03256C"/>
</g>
<defs>
<clipPath id="clip0_5401_7241">
<rect width="25.1749" height="24.334" fill="white" transform="translate(0.0507812)"/>
</clipPath>
</defs>
</svg>
